<svg xmlns="http://www.w3.org/2000/svg" width="18" height="18" viewBox="0 0 18 18">
    <g fill="none" fill-rule="evenodd">
        <g>
            <g>
                <path fill="#010505" fill-opacity=".38" d="M8.948 0C3.983.03-.03 4.095 0 9.052.03 14.01 4.088 18.03 9.052 18c4.965-.03 8.978-4.088 8.948-9.052C17.97 3.983 13.905-.03 8.948 0z" transform="translate(-443 -328) translate(443 328)"/>
                <path fill="#FFF" d="M9 3.84c1.372 0 2.49 1.23 2.49 2.745C11.49 8.1 10.372 9.33 9 9.33S6.51 8.1 6.51 6.585C6.51 5.07 7.62 3.84 9 3.84zM14.745 14.265c-1.425 1.552-3.473 2.527-5.752 2.527-2.273 0-4.32-.975-5.745-2.527-.165-.18-.203-.458-.083-.675 1.148-2.033 3.323-3.413 5.828-3.413 2.504 0 4.68 1.38 5.827 3.413.127.217.097.495-.075.675z" transform="translate(-443 -328) translate(443 328)"/>
            </g>
        </g>
    </g>
</svg>
